<?xml version="1.0" encoding="UTF-8"?>
<svg id="Layer_1" data-name="Layer 1" xmlns="http://www.w3.org/2000/svg" viewBox="0 0 133.57 124.47">
  <defs>
    <style>
      .cls-1 {
        fill: none;
      }

      .cls-1, .cls-2, .cls-3 {
        stroke: #231f20;
        stroke-miterlimit: 10;
      }

      .cls-2, .cls-4 {
        fill: #231f20;
      }

      .cls-4 {
        stroke-width: 0px;
      }

      .cls-3 {
        fill: #fff;
      }
    </style>
  </defs>
  <g id="_HelmetV_" data-name="&amp;lt;HelmetV&amp;gt;">
    <path class="cls-1" d="M119.49,85.74c2.48-1.24,5.66-3.04,6.32-3.94.97-1.32,1.31-2.5,1.95-4.8.55-1.96,1.17-4.94,1.31-6.08l-6.36-1.28-3.23,16.09Z"/>
    <path class="cls-2" d="M12.07,42.22c-.07-.09-.19-1.42-.18-1.47.34-1.89.74-5.86,4.19-12.12,1.9-3.44,3.82-5.54,7.65-9.73,1.97-2.15,3.65-4,6.23-6.13,1.54-1.28,5.11-4.07,10.21-6.53,6.43-3.1,11.85-4,16.67-4.76,4.29-.68,10.95-1.37,19.1-.7,5.63.47,13.68,1.2,23.16,5.43,11.47,5.12,18.29,12.35,20.26,14.53,4.43,4.92,6.98,9.46,8.1,11.59,6.35,12.12,5.29,24.7,5.01,28.32-.03.37-2.67.33-3.53-.5-1.06-1.03-.75-3.03-.67-3.28.13-.41.72-1.59.73-2.98,0-.24.02-1.25-.45-2.1-.84-1.53-2.99-.93-4.66-2.32,0,0-.7-.92-1.57-2.58-.69-1.3-1.07-1.48-4.34-4.92-2.68-2.83-2.75-3.05-4.73-5.04,0,0-1.6-1.6-2.95-2.84-4.84-4.45-13.33-7.83-13.33-7.83-10.91-4.34-22.13-5.85-27.31-6.39-6.81-.71-13.73-1.39-22.74.02-7.47,1.17-11.21,1.76-14.58,4.05-5.93,4.04-13.4,11-16.84,15.72-.5.68-3.17,2.91-3.44,2.55Z"/>
    <path class="cls-4" d="M.2,111.32c-.81-3.09.88-5.53,3.38-10.88,1.51-3.24,2.79-5.98,3.8-9.46.75-2.56.34-2.05,1.76-10.13,1.19-6.79,1.88-9.45.32-10.92-1.09-1.02-2.28-.53-3.24-1.91-1.11-1.58-.31-3.31-1.53-4.18-.83-.59-1.52-.02-2.13-.61-.71-.68-.16-1.8.1-4.41.11-1.11-.03-.48.07-5.56.04-2.12.05-1.44.1-3.63.08-3.79.02-4.21.34-4.96.59-1.36,1.96-2.61,3.55-3.03,2.23-.6,3.09.96,5.4.34,1.28-.34,2.1-1.11,3.39-2.32,1.41-1.32,1.82-2.16,2.92-3.57.55-.7,2.57-3.27,5.48-5.24.78-.53,2.91-1.88,5.95-2.68,4.83-1.26,8.83-.3,10.71.18,2.91.74,6.95,1.76,9.76,5.18,1.89,2.3,1.54,3.63,3.93,5.75.81.72,2.91,2.53,5.95,2.83,1.12.11,2.93.08,6.5-1.68,5.17-2.54,5.58-4.53,9.46-6.71,4.43-2.48,8.75-2.62,11.12-2.7,5.98-.19,10.6,1.6,12.98,2.74,6.42,3.06,11.26,8.37,12.06,10.96.07.22.28.97.91,1.67,1,1.11,2.62.76,3.96.98,5.45.91,7.27,1.08,8.84,1.81,2.01.94,2.41,2.4,2.54,2.7.55,1.22-.05,2.17-.07,4.53,0,.84-.25,1.73.29,2.48.5.68-.18.65,2.11,1.66,2.07.91,2.34,1.2,2.5,1.52.36.71,0,1.23-.24,2.85-.04.25-.07,1.55-.12,4.14,0,0-.04,1.76-.29,4.17-.13,1.21-.22,1.71-.63,2.01-.65.47-1.66.09-2.64-.29-1.64-.64-1.79-1.19-3.37-1.89-1.17-.52-2.38-1.05-3.27-.56-.49.27-.93.89-1.16,3.29-.25,2.7.04,4.77.16,5.65.32,2.42.28,4.88.43,7.32.17,2.84.33,5.59.48,8.99.11,2.5.17,4.47.2,5.54.38,12.97-.34,10.92.11,13.39,0,0,.49,2.71-.27,5.82-.14.58-.42,1.5-1.17,1.86-.1.05-.29.13-1.5.1-.75-.01-1.07-.05-2.37-.15-1.38-.11-1.52-.1-1.76-.26-.21-.14-.68-.52-.91-1.92-.25-1.47,0-2.63.14-3.38.3-1.61.39-3.26.58-4.89.22-1.81.29-3.06.41-5.28.19-3.37.16-6.08.08-10.38-.13-6.52-.19-9.77-.3-12-.42-8.61-.92-9.35,0-11.61.51-1.25,1.58-3.3.74-4.35-.56-.7-1.53-.43-2.91-1.57-.41-.34-.97-.81-1.27-1.57-.56-1.46.26-2.9.13-2.95-.17-.07-1.11,2.79-2.89,5.27-1.37,1.91-2.82,2.99-4.08,3.94-4.24,3.18-8.48,4.17-10.29,4.58-4.31.96-7.77.7-8.97.58-6.24-.62-10.54-3.19-11.69-3.92-4.24-2.67-6.55-5.82-8.06-7.95-2.54-3.55-3.8-5.33-3.82-7.95-.01-2.49,1.11-4.1,0-5.69-.65-.94-1.94-1.67-3.25-1.5-1.53.2-2.37,1.53-2.52,1.78-.89,1.41-.41,2.56-.58,4.57-.2,2.41-1.17,4.13-2.04,5.66-1.38,2.44-3.03,3.83-5.06,5.49-2.34,1.92-4.73,3.89-8.49,5.1-3.78,1.21-6.91,1-9.91.8-3.2-.22-4.81-.32-6.31-1.19-3.6-2.07-5.93-4.27-5.93-4.27-.4-.38-1.02-.99-1.39-.81-.55.26-.14,2.03.09,3.56.18,1.22.11,3.61-.05,8.4-.12,3.73-.35,6.63-.46,7.92-.46,5.43-.7,8.14-1.38,10.56-.33,1.19-1.67,3.96-4.34,9.5-2.19,4.55-2.98,5.97-4.67,6.5-1.44.45-3.33.19-4.68-.9-.22-.17-1.26-1.05-1.73-2.87Z"/>
    <path class="cls-3" d="M28.95,32.84c-6.34,1.79-9.66,6.97-10.84,8.81-1.62,2.52-6.08,9.49-3.27,16.98,1.8,4.81,5.64,7.26,6.91,8,7.11,4.1,14.73,1.06,16.84.1,7.54-3.44,10.24-10.4,10.88-12.27.8-2.32,2.77-8.03-.04-13.59-3.33-6.6-11.18-8.64-16.04-8.63-2.24,0-3.91.45-4.44.6Z"/>
    <path class="cls-3" d="M72.49,42.08c4.11-5.23,9.96-6.42,12.07-6.82,5.9-1.11,10.55.57,12.62,1.35,2.63.99,7.38,2.77,10.68,7.75.76,1.15,3.49,5.4,3.02,11.34-.44,5.54-3.4,9.12-4.35,10.23-3.83,4.5-8.66,5.8-11.2,6.44-2.35.59-8.85,2.24-15.63-1.24-5.5-2.82-8.03-7.39-8.81-8.94-.73-1.46-3.14-6.46-1.81-12.74.85-3.99,2.8-6.61,3.41-7.37Z"/>
    <path class="cls-1" d="M22.1,32.24c-.33-.85,10.44-9.78,18.98-12.08,5.58-1.5,9.97-1.55,16.69-1.57,3.94-.01,10.28-.01,18.51,1.32,8.12,1.32,16.18,2.62,25.37,7.69,3.75,2.07,10.49,5.87,16.3,13.53,2.56,3.38,5.05,7.13,4.62,7.51-.21.18-.89-.65-2.49-1.1-1.72-.49-2.54.03-3.94-.22-1.77-.32-2.88-1.58-3.79-2.58-2.04-2.23-4.46-5.4-8.1-8.07-1.68-1.23-8.64-4.42-13.08-5.66-2.18-.61-13.03-4-15.64-4.46-3.93-.69-12.65-1.46-19.79-1.5-.84,0-12.33,1.07-17.65,2.63-.75.22-2.28-.23-4.5-.24-4.96-.02-11.3,5.26-11.48,4.8Z"/>
  </g>
</svg>